<mxfile host="app.diagrams.net" modified="2024-03-27T17:40:31.854Z" agent="Mozilla/5.0 (Windows NT 10.0; Win64; x64; rv:123.0) Gecko/20100101 Firefox/123.0" etag="Nt3rSKiTV_cC6OtC2aPE" version="24.2.0" type="github">
  <diagram name="Page-1" id="Wq4Pi5_Zihfn6wVo8_yz">
    <mxGraphModel dx="1589" dy="1612" grid="1" gridSize="10" guides="1" tooltips="1" connect="1" arrows="1" fold="1" page="1" pageScale="1" pageWidth="827" pageHeight="1169" math="0" shadow="0">
      <root>
        <mxCell id="0" />
        <mxCell id="1" parent="0" />
        <mxCell id="N5hau3d_H5IXKtFI3GQf-1" value="user" style="rounded=0;whiteSpace=wrap;html=1;" vertex="1" parent="1">
          <mxGeometry x="110" y="200" width="130" height="60" as="geometry" />
        </mxCell>
        <mxCell id="N5hau3d_H5IXKtFI3GQf-2" value="email" style="ellipse;whiteSpace=wrap;html=1;" vertex="1" parent="1">
          <mxGeometry x="10" y="50" width="120" height="80" as="geometry" />
        </mxCell>
        <mxCell id="N5hau3d_H5IXKtFI3GQf-3" value="name" style="ellipse;whiteSpace=wrap;html=1;" vertex="1" parent="1">
          <mxGeometry x="-90" y="150" width="120" height="80" as="geometry" />
        </mxCell>
        <mxCell id="N5hau3d_H5IXKtFI3GQf-4" value="password" style="ellipse;whiteSpace=wrap;html=1;" vertex="1" parent="1">
          <mxGeometry x="290" y="90" width="120" height="80" as="geometry" />
        </mxCell>
        <mxCell id="N5hau3d_H5IXKtFI3GQf-5" value="phone_number" style="ellipse;whiteSpace=wrap;html=1;" vertex="1" parent="1">
          <mxGeometry x="170" y="40" width="120" height="80" as="geometry" />
        </mxCell>
        <mxCell id="N5hau3d_H5IXKtFI3GQf-6" value="" style="endArrow=none;html=1;rounded=0;entryX=1;entryY=0.375;entryDx=0;entryDy=0;entryPerimeter=0;" edge="1" parent="1" target="N5hau3d_H5IXKtFI3GQf-3">
          <mxGeometry width="50" height="50" relative="1" as="geometry">
            <mxPoint x="140" y="200" as="sourcePoint" />
            <mxPoint x="220" y="210" as="targetPoint" />
            <Array as="points">
              <mxPoint x="140" y="200" />
              <mxPoint x="80" y="190" />
            </Array>
          </mxGeometry>
        </mxCell>
        <mxCell id="N5hau3d_H5IXKtFI3GQf-7" value="" style="endArrow=none;html=1;rounded=0;entryX=1;entryY=0.375;entryDx=0;entryDy=0;entryPerimeter=0;exitX=0;exitY=1;exitDx=0;exitDy=0;" edge="1" parent="1" source="N5hau3d_H5IXKtFI3GQf-4">
          <mxGeometry width="50" height="50" relative="1" as="geometry">
            <mxPoint x="360" y="280" as="sourcePoint" />
            <mxPoint x="220" y="200" as="targetPoint" />
            <Array as="points" />
          </mxGeometry>
        </mxCell>
        <mxCell id="N5hau3d_H5IXKtFI3GQf-8" value="" style="endArrow=none;html=1;rounded=0;exitX=0.25;exitY=0;exitDx=0;exitDy=0;" edge="1" parent="1" source="N5hau3d_H5IXKtFI3GQf-1" target="N5hau3d_H5IXKtFI3GQf-5">
          <mxGeometry width="50" height="50" relative="1" as="geometry">
            <mxPoint x="220" y="190" as="sourcePoint" />
            <mxPoint x="170" y="130" as="targetPoint" />
            <Array as="points" />
          </mxGeometry>
        </mxCell>
        <mxCell id="N5hau3d_H5IXKtFI3GQf-9" value="" style="endArrow=none;html=1;rounded=0;entryX=0.725;entryY=0.963;entryDx=0;entryDy=0;entryPerimeter=0;exitX=0.25;exitY=0;exitDx=0;exitDy=0;exitPerimeter=0;" edge="1" parent="1" source="N5hau3d_H5IXKtFI3GQf-1" target="N5hau3d_H5IXKtFI3GQf-2">
          <mxGeometry width="50" height="50" relative="1" as="geometry">
            <mxPoint x="143.88382284382286" y="192.96" as="sourcePoint" />
            <mxPoint x="90.00000000000003" y="119.99999999999996" as="targetPoint" />
            <Array as="points" />
          </mxGeometry>
        </mxCell>
        <mxCell id="N5hau3d_H5IXKtFI3GQf-11" value="category" style="rounded=0;whiteSpace=wrap;html=1;" vertex="1" parent="1">
          <mxGeometry x="230" y="-300" width="120" height="60" as="geometry" />
        </mxCell>
        <mxCell id="N5hau3d_H5IXKtFI3GQf-12" value="employer" style="ellipse;whiteSpace=wrap;html=1;" vertex="1" parent="1">
          <mxGeometry x="-150" y="-190" width="120" height="80" as="geometry" />
        </mxCell>
        <mxCell id="N5hau3d_H5IXKtFI3GQf-13" value="job_seeker" style="ellipse;whiteSpace=wrap;html=1;" vertex="1" parent="1">
          <mxGeometry x="650" y="-190" width="120" height="80" as="geometry" />
        </mxCell>
        <mxCell id="N5hau3d_H5IXKtFI3GQf-14" value="" style="endArrow=none;html=1;rounded=0;entryX=0.25;entryY=0;entryDx=0;entryDy=0;" edge="1" parent="1" source="N5hau3d_H5IXKtFI3GQf-20" target="N5hau3d_H5IXKtFI3GQf-1">
          <mxGeometry width="50" height="50" relative="1" as="geometry">
            <mxPoint x="444" y="8" as="sourcePoint" />
            <mxPoint x="220" y="200" as="targetPoint" />
            <Array as="points" />
          </mxGeometry>
        </mxCell>
        <mxCell id="N5hau3d_H5IXKtFI3GQf-15" value="" style="endArrow=none;html=1;rounded=0;exitX=1.017;exitY=0.388;exitDx=0;exitDy=0;exitPerimeter=0;" edge="1" parent="1">
          <mxGeometry width="50" height="50" relative="1" as="geometry">
            <mxPoint x="-30.000000000000036" y="-158.96000000000004" as="sourcePoint" />
            <mxPoint x="237.96" y="-240" as="targetPoint" />
            <Array as="points">
              <mxPoint x="160.46" y="-210" />
              <mxPoint x="220.46" y="-230" />
            </Array>
          </mxGeometry>
        </mxCell>
        <mxCell id="N5hau3d_H5IXKtFI3GQf-17" value="apply" style="rounded=0;whiteSpace=wrap;html=1;" vertex="1" parent="1">
          <mxGeometry x="860" y="200" width="120" height="60" as="geometry" />
        </mxCell>
        <mxCell id="N5hau3d_H5IXKtFI3GQf-18" value="user_id" style="ellipse;whiteSpace=wrap;html=1;fillColor=#ffe6cc;strokeColor=#d79b00;" vertex="1" parent="1">
          <mxGeometry x="240" y="320" width="120" height="80" as="geometry" />
        </mxCell>
        <mxCell id="N5hau3d_H5IXKtFI3GQf-19" value="" style="endArrow=none;html=1;rounded=0;exitX=0;exitY=1;exitDx=0;exitDy=0;entryX=0.954;entryY=1.017;entryDx=0;entryDy=0;entryPerimeter=0;" edge="1" parent="1" target="N5hau3d_H5IXKtFI3GQf-1">
          <mxGeometry width="50" height="50" relative="1" as="geometry">
            <mxPoint x="286.3" y="320" as="sourcePoint" />
            <mxPoint x="209.99565217391302" y="281" as="targetPoint" />
            <Array as="points" />
          </mxGeometry>
        </mxCell>
        <mxCell id="N5hau3d_H5IXKtFI3GQf-20" value="have" style="rhombus;whiteSpace=wrap;html=1;" vertex="1" parent="1">
          <mxGeometry x="440" y="-40" width="80" height="80" as="geometry" />
        </mxCell>
        <mxCell id="N5hau3d_H5IXKtFI3GQf-23" value="" style="endArrow=none;html=1;rounded=0;exitX=0;exitY=0.625;exitDx=0;exitDy=0;entryX=1;entryY=0.5;entryDx=0;entryDy=0;exitPerimeter=0;" edge="1" parent="1" source="N5hau3d_H5IXKtFI3GQf-13">
          <mxGeometry width="50" height="50" relative="1" as="geometry">
            <mxPoint x="660" y="-140.00000000000003" as="sourcePoint" />
            <mxPoint x="510" y="-9.04" as="targetPoint" />
            <Array as="points" />
          </mxGeometry>
        </mxCell>
        <mxCell id="N5hau3d_H5IXKtFI3GQf-24" value="" style="endArrow=none;html=1;rounded=0;exitX=0.017;exitY=0.275;exitDx=0;exitDy=0;entryX=1;entryY=0.75;entryDx=0;entryDy=0;exitPerimeter=0;" edge="1" parent="1">
          <mxGeometry width="50" height="50" relative="1" as="geometry">
            <mxPoint x="662.04" y="-168" as="sourcePoint" />
            <mxPoint x="360" y="-255" as="targetPoint" />
            <Array as="points">
              <mxPoint x="350" y="-260" />
            </Array>
          </mxGeometry>
        </mxCell>
        <mxCell id="N5hau3d_H5IXKtFI3GQf-26" value="have" style="rhombus;whiteSpace=wrap;html=1;" vertex="1" parent="1">
          <mxGeometry x="-130" y="-20" width="80" height="80" as="geometry" />
        </mxCell>
        <mxCell id="N5hau3d_H5IXKtFI3GQf-27" value="" style="endArrow=none;html=1;rounded=0;entryX=0.5;entryY=1;entryDx=0;entryDy=0;" edge="1" parent="1" target="N5hau3d_H5IXKtFI3GQf-12">
          <mxGeometry width="50" height="50" relative="1" as="geometry">
            <mxPoint x="-90" y="-20" as="sourcePoint" />
            <mxPoint x="-40" y="-70" as="targetPoint" />
          </mxGeometry>
        </mxCell>
        <mxCell id="N5hau3d_H5IXKtFI3GQf-28" value="" style="endArrow=none;html=1;rounded=0;entryX=0.5;entryY=1;entryDx=0;entryDy=0;exitX=0.25;exitY=0;exitDx=0;exitDy=0;" edge="1" parent="1" source="N5hau3d_H5IXKtFI3GQf-1" target="N5hau3d_H5IXKtFI3GQf-26">
          <mxGeometry width="50" height="50" relative="1" as="geometry">
            <mxPoint x="149.96000000000004" y="200.00000000000003" as="sourcePoint" />
            <mxPoint x="-50" y="20.02" as="targetPoint" />
            <Array as="points">
              <mxPoint y="120" />
            </Array>
          </mxGeometry>
        </mxCell>
        <mxCell id="N5hau3d_H5IXKtFI3GQf-29" value="company_name" style="ellipse;whiteSpace=wrap;html=1;fillColor=#dae8fc;strokeColor=#6c8ebf;" vertex="1" parent="1">
          <mxGeometry x="320" y="170" width="120" height="80" as="geometry" />
        </mxCell>
        <mxCell id="N5hau3d_H5IXKtFI3GQf-30" value="" style="endArrow=none;html=1;rounded=0;entryX=1;entryY=0.375;entryDx=0;entryDy=0;entryPerimeter=0;exitX=0;exitY=1;exitDx=0;exitDy=0;" edge="1" parent="1">
          <mxGeometry width="50" height="50" relative="1" as="geometry">
            <mxPoint x="328" y="200" as="sourcePoint" />
            <mxPoint x="240" y="242" as="targetPoint" />
            <Array as="points" />
          </mxGeometry>
        </mxCell>
        <mxCell id="N5hau3d_H5IXKtFI3GQf-31" value="reg_number" style="ellipse;whiteSpace=wrap;html=1;fillColor=#dae8fc;strokeColor=#6c8ebf;" vertex="1" parent="1">
          <mxGeometry x="380" y="260" width="120" height="80" as="geometry" />
        </mxCell>
        <mxCell id="N5hau3d_H5IXKtFI3GQf-32" value="" style="endArrow=none;html=1;rounded=0;exitX=0.008;exitY=0.363;exitDx=0;exitDy=0;exitPerimeter=0;" edge="1" parent="1" source="N5hau3d_H5IXKtFI3GQf-31" target="N5hau3d_H5IXKtFI3GQf-1">
          <mxGeometry width="50" height="50" relative="1" as="geometry">
            <mxPoint x="338" y="210" as="sourcePoint" />
            <mxPoint x="250" y="252" as="targetPoint" />
            <Array as="points" />
          </mxGeometry>
        </mxCell>
        <mxCell id="N5hau3d_H5IXKtFI3GQf-33" value="create_job(employer)" style="rounded=0;whiteSpace=wrap;html=1;" vertex="1" parent="1">
          <mxGeometry x="110" y="680" width="120" height="60" as="geometry" />
        </mxCell>
        <mxCell id="N5hau3d_H5IXKtFI3GQf-34" value="salary" style="ellipse;whiteSpace=wrap;html=1;" vertex="1" parent="1">
          <mxGeometry x="270" y="640" width="100" height="60" as="geometry" />
        </mxCell>
        <mxCell id="N5hau3d_H5IXKtFI3GQf-35" value="job_title" style="ellipse;whiteSpace=wrap;html=1;" vertex="1" parent="1">
          <mxGeometry x="-60" y="620" width="100" height="60" as="geometry" />
        </mxCell>
        <mxCell id="N5hau3d_H5IXKtFI3GQf-36" value="job_description" style="ellipse;whiteSpace=wrap;html=1;" vertex="1" parent="1">
          <mxGeometry x="30" y="570" width="100" height="60" as="geometry" />
        </mxCell>
        <mxCell id="N5hau3d_H5IXKtFI3GQf-37" value="location" style="ellipse;whiteSpace=wrap;html=1;" vertex="1" parent="1">
          <mxGeometry x="220" y="570" width="100" height="60" as="geometry" />
        </mxCell>
        <mxCell id="N5hau3d_H5IXKtFI3GQf-38" value="" style="endArrow=none;html=1;rounded=0;" edge="1" parent="1">
          <mxGeometry width="50" height="50" relative="1" as="geometry">
            <mxPoint x="220" y="680" as="sourcePoint" />
            <mxPoint x="270" y="630" as="targetPoint" />
          </mxGeometry>
        </mxCell>
        <mxCell id="N5hau3d_H5IXKtFI3GQf-39" value="" style="endArrow=none;html=1;rounded=0;exitX=1;exitY=0;exitDx=0;exitDy=0;" edge="1" parent="1" source="N5hau3d_H5IXKtFI3GQf-33">
          <mxGeometry width="50" height="50" relative="1" as="geometry">
            <mxPoint x="220" y="725" as="sourcePoint" />
            <mxPoint x="270" y="675" as="targetPoint" />
          </mxGeometry>
        </mxCell>
        <mxCell id="N5hau3d_H5IXKtFI3GQf-40" value="" style="endArrow=none;html=1;rounded=0;entryX=0;entryY=0;entryDx=0;entryDy=0;exitX=0.94;exitY=0.7;exitDx=0;exitDy=0;exitPerimeter=0;" edge="1" parent="1" source="N5hau3d_H5IXKtFI3GQf-35" target="N5hau3d_H5IXKtFI3GQf-33">
          <mxGeometry width="50" height="50" relative="1" as="geometry">
            <mxPoint x="38.17589548149704" y="668.0293159135831" as="sourcePoint" />
            <mxPoint x="80" y="660" as="targetPoint" />
          </mxGeometry>
        </mxCell>
        <mxCell id="N5hau3d_H5IXKtFI3GQf-41" value="" style="endArrow=none;html=1;rounded=0;" edge="1" parent="1">
          <mxGeometry width="50" height="50" relative="1" as="geometry">
            <mxPoint x="110" y="630" as="sourcePoint" />
            <mxPoint x="120" y="680" as="targetPoint" />
            <Array as="points">
              <mxPoint x="100" y="630" />
              <mxPoint x="100" y="620" />
            </Array>
          </mxGeometry>
        </mxCell>
        <mxCell id="N5hau3d_H5IXKtFI3GQf-42" value="job_post_on" style="ellipse;whiteSpace=wrap;html=1;" vertex="1" parent="1">
          <mxGeometry x="280" y="705" width="100" height="60" as="geometry" />
        </mxCell>
        <mxCell id="N5hau3d_H5IXKtFI3GQf-43" value="country" style="ellipse;whiteSpace=wrap;html=1;" vertex="1" parent="1">
          <mxGeometry x="-70" y="690" width="100" height="50" as="geometry" />
        </mxCell>
        <mxCell id="N5hau3d_H5IXKtFI3GQf-44" value="" style="endArrow=none;html=1;rounded=0;exitX=1;exitY=0.5;exitDx=0;exitDy=0;" edge="1" parent="1" source="N5hau3d_H5IXKtFI3GQf-43">
          <mxGeometry width="50" height="50" relative="1" as="geometry">
            <mxPoint x="23" y="711.98" as="sourcePoint" />
            <mxPoint x="110" y="705" as="targetPoint" />
          </mxGeometry>
        </mxCell>
        <mxCell id="N5hau3d_H5IXKtFI3GQf-45" value="" style="endArrow=none;html=1;rounded=0;exitX=1;exitY=0.75;exitDx=0;exitDy=0;" edge="1" parent="1" source="N5hau3d_H5IXKtFI3GQf-33">
          <mxGeometry width="50" height="50" relative="1" as="geometry">
            <mxPoint x="203" y="747" as="sourcePoint" />
            <mxPoint x="290" y="740" as="targetPoint" />
          </mxGeometry>
        </mxCell>
        <mxCell id="N5hau3d_H5IXKtFI3GQf-46" value="" style="endArrow=none;html=1;rounded=0;entryX=0.5;entryY=1;entryDx=0;entryDy=0;" edge="1" parent="1" target="N5hau3d_H5IXKtFI3GQf-1">
          <mxGeometry width="50" height="50" relative="1" as="geometry">
            <mxPoint x="150" y="370" as="sourcePoint" />
            <mxPoint x="180" y="360" as="targetPoint" />
          </mxGeometry>
        </mxCell>
        <mxCell id="N5hau3d_H5IXKtFI3GQf-47" value="can _do" style="rhombus;whiteSpace=wrap;html=1;" vertex="1" parent="1">
          <mxGeometry x="110" y="360" width="80" height="80" as="geometry" />
        </mxCell>
        <mxCell id="N5hau3d_H5IXKtFI3GQf-48" value="" style="endArrow=none;html=1;rounded=0;entryX=0.5;entryY=1;entryDx=0;entryDy=0;exitX=0.5;exitY=0;exitDx=0;exitDy=0;" edge="1" parent="1" source="N5hau3d_H5IXKtFI3GQf-33" target="N5hau3d_H5IXKtFI3GQf-47">
          <mxGeometry width="50" height="50" relative="1" as="geometry">
            <mxPoint x="250" y="540" as="sourcePoint" />
            <mxPoint x="300" y="490" as="targetPoint" />
          </mxGeometry>
        </mxCell>
        <mxCell id="N5hau3d_H5IXKtFI3GQf-49" value="city" style="ellipse;whiteSpace=wrap;html=1;" vertex="1" parent="1">
          <mxGeometry x="240" y="780" width="100" height="60" as="geometry" />
        </mxCell>
        <mxCell id="N5hau3d_H5IXKtFI3GQf-50" value="" style="endArrow=none;html=1;rounded=0;entryX=0.08;entryY=0.2;entryDx=0;entryDy=0;entryPerimeter=0;" edge="1" parent="1" target="N5hau3d_H5IXKtFI3GQf-49">
          <mxGeometry width="50" height="50" relative="1" as="geometry">
            <mxPoint x="207" y="742" as="sourcePoint" />
            <mxPoint x="250" y="800" as="targetPoint" />
            <Array as="points">
              <mxPoint x="230" y="740" />
            </Array>
          </mxGeometry>
        </mxCell>
        <mxCell id="N5hau3d_H5IXKtFI3GQf-51" value="" style="endArrow=none;html=1;rounded=0;" edge="1" parent="1" target="N5hau3d_H5IXKtFI3GQf-17">
          <mxGeometry width="50" height="50" relative="1" as="geometry">
            <mxPoint x="745" y="-112" as="sourcePoint" />
            <mxPoint x="840" y="210.96" as="targetPoint" />
            <Array as="points" />
          </mxGeometry>
        </mxCell>
        <mxCell id="N5hau3d_H5IXKtFI3GQf-52" value="1" style="text;html=1;align=center;verticalAlign=middle;resizable=0;points=[];autosize=1;strokeColor=none;fillColor=none;" vertex="1" parent="1">
          <mxGeometry x="-95" y="-82" width="30" height="30" as="geometry" />
        </mxCell>
        <mxCell id="N5hau3d_H5IXKtFI3GQf-53" value="1" style="text;html=1;align=center;verticalAlign=middle;resizable=0;points=[];autosize=1;strokeColor=none;fillColor=none;" vertex="1" parent="1">
          <mxGeometry x="-45" y="68" width="30" height="30" as="geometry" />
        </mxCell>
        <mxCell id="N5hau3d_H5IXKtFI3GQf-54" value="1" style="text;html=1;align=center;verticalAlign=middle;resizable=0;points=[];autosize=1;strokeColor=none;fillColor=none;" vertex="1" parent="1">
          <mxGeometry x="535" y="-82" width="30" height="30" as="geometry" />
        </mxCell>
        <mxCell id="N5hau3d_H5IXKtFI3GQf-55" value="1" style="text;html=1;align=center;verticalAlign=middle;resizable=0;points=[];autosize=1;strokeColor=none;fillColor=none;" vertex="1" parent="1">
          <mxGeometry x="375" y="28" width="30" height="30" as="geometry" />
        </mxCell>
      </root>
    </mxGraphModel>
  </diagram>
</mxfile>
